<?xml version="1.0" encoding="UTF-8"?>
<svg version="1.1" xmlns="http://www.w3.org/2000/svg" width="225" height="225">
<path d="M0 0 C74.25 0 148.5 0 225 0 C225 74.25 225 148.5 225 225 C150.75 225 76.5 225 0 225 C0 150.75 0 76.5 0 0 Z " fill="#FEFEFE" transform="translate(0,0)"/>
<path d="M0 0 C1.01811768 0.27513428 2.03623535 0.55026855 3.08520508 0.83374023 C5.10219682 1.38234015 7.11795051 1.93551603 9.13232422 2.49365234 C11.46021644 3.13561515 13.79226823 3.7542486 16.12890625 4.36328125 C17.82853516 4.83314453 17.82853516 4.83314453 19.5625 5.3125 C20.51511719 5.57160156 21.46773438 5.83070312 22.44921875 6.09765625 C25.58889125 7.58912708 26.97262074 9.37048958 28.875 12.25 C29.85706188 16.55596362 29.95436476 18.93254095 28.875 23.25 C22.605 23.25 16.335 23.25 9.875 23.25 C12.29630331 20.82869669 13.67611377 20.72159496 17 20.125 C17.91007812 19.95742188 18.82015625 19.78984375 19.7578125 19.6171875 C20.45648438 19.49601562 21.15515625 19.37484375 21.875 19.25 C21.545 17.6 21.215 15.95 20.875 14.25 C16.10940523 12.9375969 11.34059162 11.63791256 6.56835938 10.34985352 C4.9456685 9.90996939 3.32390891 9.46663467 1.703125 9.01977539 C-0.62783888 8.37776052 -2.96187906 7.74826247 -5.296875 7.12109375 C-6.01993835 6.91906845 -6.74300171 6.71704315 -7.48797607 6.50889587 C-12.33695297 5.21393836 -12.33695297 5.21393836 -17.125 6.25 C-17.36734375 7.33796875 -17.6096875 8.4259375 -17.859375 9.546875 C-19.84210686 18.2926374 -22.0656107 26.80413273 -25.125 35.25 C-24.49335937 34.99605469 -23.86171875 34.74210937 -23.2109375 34.48046875 C-8.5390903 28.83582437 6.01336773 27.06289506 21.61328125 27.06469727 C23.76581845 27.06248373 25.91786382 27.0441989 28.0703125 27.02539062 C29.44010243 27.02246095 30.80989476 27.02047331 32.1796875 27.01953125 C34.0356958 27.01336792 34.0356958 27.01336792 35.92919922 27.00708008 C38.875 27.25 38.875 27.25 40.875 29.25 C33.45 30.24 33.45 30.24 25.875 31.25 C25.38 33.415625 24.885 35.58125 24.375 37.8125 C22.46922993 45.95495311 20.45551566 54.07138368 18.39916992 62.17697144 C18.05276303 63.54696876 17.70912438 64.91766935 17.3684082 66.28909302 C12.10856588 87.42330667 12.10856588 87.42330667 6.875 91.25 C1.498717 92.59427642 -2.83330178 91.94228902 -8.0703125 90.484375 C-9.16966629 90.1932785 -9.16966629 90.1932785 -10.29122925 89.89630127 C-11.83079358 89.48557303 -13.36864393 89.06837062 -14.90478516 88.64501953 C-17.24628225 88.00102252 -19.5929725 87.37988268 -21.94140625 86.76171875 C-23.44306803 86.35810673 -24.94438314 85.95320223 -26.4453125 85.546875 C-27.14125519 85.36235779 -27.83719788 85.17784058 -28.55422974 84.98773193 C-33.0897673 83.72452316 -37.46209448 82.38802138 -40.4375 78.5625 C-41.7170596 74.25852679 -41.98679374 70.40866781 -40.3203125 66.234375 C-34.84683482 56.64635203 -25.39896735 49.9369042 -15.125 46.25 C-14.135 46.58 -13.145 46.91 -12.125 47.25 C-13.08599609 47.88615234 -13.08599609 47.88615234 -14.06640625 48.53515625 C-22.69794866 54.38813955 -30.13659003 60.30654473 -34.125 70.25 C-34.125 71.57 -34.125 72.89 -34.125 74.25 C-27.29508672 76.6068509 -20.42491138 78.60347433 -13.4375 80.4375 C-12.43138672 80.71013672 -11.42527344 80.98277344 -10.38867188 81.26367188 C-5.54401089 82.53791033 -1.18281683 83.63773724 3.875 83.25 C7.15276692 71.5587945 10.34389004 59.84639983 13.46313477 48.11181641 C13.74729248 47.04882324 14.0314502 45.98583008 14.32421875 44.890625 C14.70066528 43.47571777 14.70066528 43.47571777 15.0847168 42.03222656 C15.9257722 39.07125427 16.88136083 36.16295571 17.875 33.25 C-15.16955148 40.53709586 -15.16955148 40.53709586 -40.75 61.125 C-44.55187733 67.43216065 -45.11870019 73.20373123 -43.67578125 80.53125 C-43.21619719 82.12186716 -42.67966923 83.68999279 -42.125 85.25 C-48.23606299 80.71820048 -52.33074806 76.31522932 -53.5390625 68.609375 C-53.96171468 60.64571815 -51.57642206 55.31628347 -46.48046875 49.3125 C-44.28495536 47.01291035 -42.18041009 44.87734379 -39.43115234 43.24316406 C-35.80782995 41.01444681 -33.78263777 39.34874152 -32.5234375 35.203125 C-32.15640433 33.64127464 -31.81638985 32.0728914 -31.5 30.5 C-31.10495014 28.8042003 -30.70776626 27.10889651 -30.30859375 25.4140625 C-30.01831299 24.12870605 -30.01831299 24.12870605 -29.72216797 22.81738281 C-28.78810483 18.80159867 -27.69625013 14.83831773 -26.5625 10.875 C-26.37671387 10.18051758 -26.19092773 9.48603516 -25.99951172 8.77050781 C-24.77378178 4.47886666 -23.19334138 1.49454316 -20.125 -1.75 C-13.96220278 -4.83139861 -6.18640506 -1.69703018 0 0 Z " fill="#FA6269" transform="translate(124.125,42.75)"/>
<path d="M0 0 C-0.96099609 0.63615234 -0.96099609 0.63615234 -1.94140625 1.28515625 C-10.57294866 7.13813955 -18.01159003 13.05654473 -22 23 C-22 24.32 -22 25.64 -22 27 C-15.17008672 29.3568509 -8.29991138 31.35347433 -1.3125 33.1875 C-0.30638672 33.46013672 0.69972656 33.73277344 1.73632812 34.01367188 C6.58098911 35.28791033 10.94218317 36.38773724 16 36 C19.06947754 25.01781191 22.08916613 14.02539309 25 3 C26.98 3.33 28.96 3.66 31 4 C32.18172148 7.47394577 31.80560105 9.79481961 30.92578125 13.32421875 C30.66990234 14.35353516 30.41402344 15.38285156 30.15039062 16.44335938 C29.87388672 17.51392578 29.59738281 18.58449219 29.3125 19.6875 C29.05533203 20.73873047 28.79816406 21.78996094 28.53320312 22.87304688 C24.12549826 40.27644177 24.12549826 40.27644177 19 44 C13.623717 45.34427642 9.29169822 44.69228902 4.0546875 43.234375 C3.32178497 43.04031067 2.58888245 42.84624634 1.83377075 42.64630127 C0.29420642 42.23557303 -1.24364393 41.81837062 -2.77978516 41.39501953 C-5.12128225 40.75102252 -7.4679725 40.12988268 -9.81640625 39.51171875 C-11.31806803 39.10810673 -12.81938314 38.70320223 -14.3203125 38.296875 C-15.01625519 38.11235779 -15.71219788 37.92784058 -16.42922974 37.73773193 C-20.9647673 36.47452316 -25.33709448 35.13802138 -28.3125 31.3125 C-29.5920596 27.00852679 -29.86179374 23.15866781 -28.1953125 18.984375 C-23.61479412 10.96057038 -9.94858326 -3.31619442 0 0 Z " fill="#F64592" transform="translate(112,90)"/>
<path d="M0 0 C0.70279083 -0.00322266 1.40558167 -0.00644531 2.12966919 -0.00976562 C11.01971198 -0.03465064 11.01971198 -0.03465064 14.5625 0.3125 C15.2225 0.9725 15.8825 1.6325 16.5625 2.3125 C11.6125 2.9725 6.6625 3.6325 1.5625 4.3125 C1.29695313 5.49328125 1.03140625 6.6740625 0.7578125 7.890625 C0.40130998 9.44797811 0.04452428 11.00526642 -0.3125 12.5625 C-0.48652344 13.33980469 -0.66054687 14.11710937 -0.83984375 14.91796875 C-1.01386719 15.67207031 -1.18789062 16.42617187 -1.3671875 17.203125 C-1.52429199 17.89438477 -1.68139648 18.58564453 -1.84326172 19.29785156 C-2.48096845 21.45987125 -3.37549834 23.32854085 -4.4375 25.3125 C-6.4175 24.9825 -8.3975 24.6525 -10.4375 24.3125 C-9.74945504 18.12009538 -8.15701285 12.29294406 -6.4375 6.3125 C-7.67886719 6.6734375 -8.92023438 7.034375 -10.19921875 7.40625 C-11.8410476 7.87534396 -13.48298019 8.34407492 -15.125 8.8125 C-15.94162109 9.05097656 -16.75824219 9.28945312 -17.59960938 9.53515625 C-21.62921125 10.67714868 -25.20254847 11.65750623 -29.4375 11.3125 C-30.0975 9.3325 -30.7575 7.3525 -31.4375 5.3125 C-32.0975 5.3125 -32.7575 5.3125 -33.4375 5.3125 C-33.4375 4.6525 -33.4375 3.9925 -33.4375 3.3125 C-22.33720425 0.5415495 -11.39190175 0.00261638 0 0 Z " fill="#FA8A2F" transform="translate(148.4375,69.6875)"/>
<path d="M0 0 C1.88611378 0.53962896 3.78308068 1.0408727 5.68017578 1.54052734 C6.82357422 1.85634766 7.96697266 2.17216797 9.14501953 2.49755859 C10.16982422 2.77470703 11.19462891 3.05185547 12.25048828 3.33740234 C15.59027478 4.84584848 16.97273839 6.50937647 18.95751953 9.56005859 C19.93958141 13.86602221 20.03688429 16.24259955 18.95751953 20.56005859 C12.68751953 20.56005859 6.41751953 20.56005859 -0.04248047 20.56005859 C2.37882284 18.13875528 3.75863331 18.03165356 7.08251953 17.43505859 C7.99259766 17.26748047 8.90267578 17.09990234 9.84033203 16.92724609 C10.53900391 16.80607422 11.23767578 16.68490234 11.95751953 16.56005859 C11.62751953 14.91005859 11.29751953 13.26005859 10.95751953 11.56005859 C10.0592041 11.32818848 9.16088867 11.09631836 8.23535156 10.85742188 C4.90542283 9.99442649 1.57722176 9.12530141 -1.75 8.25195312 C-3.19076108 7.8751287 -4.63216782 7.50076407 -6.07421875 7.12890625 C-8.14611419 6.59417756 -10.21553154 6.05066471 -12.28466797 5.50537109 C-14.15421143 5.01834717 -14.15421143 5.01834717 -16.06152344 4.52148438 C-19.04248047 3.56005859 -19.04248047 3.56005859 -21.04248047 1.56005859 C-20.71248047 0.57005859 -20.38248047 -0.41994141 -20.04248047 -1.43994141 C-20.70248047 -1.76994141 -21.36248047 -2.09994141 -22.04248047 -2.43994141 C-15.32886837 -5.79674745 -6.74126877 -1.95949752 0 0 Z " fill="#FA9E0F" transform="translate(134.04248046875,45.43994140625)"/>
<path d="M0 0 C2.34191563 2.1290142 3.83554954 4.04408729 5 7 C5 8.32 5 9.64 5 11 C3.56466689 12.16829439 2.12620842 13.33308178 0.66796875 14.47265625 C-3.26289013 18.07210782 -5.65987022 22.50337729 -6.37890625 27.78125 C-6.49048006 33.19629899 -5.81091751 37.90679449 -4 43 C-10.11106299 38.46820048 -14.20574806 34.06522932 -15.4140625 26.359375 C-15.83923027 18.34831917 -13.43508744 12.93118322 -8.21484375 6.95703125 C-5.60623725 4.27088655 -3.12496776 2.08331184 0 0 Z " fill="#F330AC" transform="translate(86,85)"/>
<path d="M0 0 C-0.96099609 0.63615234 -0.96099609 0.63615234 -1.94140625 1.28515625 C-10.57294866 7.13813955 -18.01159003 13.05654473 -22 23 C-22 24.32 -22 25.64 -22 27 C-15.11175931 29.40990104 -15.11175931 29.40990104 -8 31 C-8.99 31.495 -8.99 31.495 -10 32 C-10 32.99 -10 33.98 -10 35 C-8.68 35 -7.36 35 -6 35 C-5.34 35.99 -4.68 36.98 -4 38 C-1.94074861 38.72382467 -1.94074861 38.72382467 0 39 C0 39.66 0 40.32 0 41 C-22.43692893 37.58275231 -22.43692893 37.58275231 -28 31 C-29.6306074 27.7387852 -29.52920484 24.52388167 -29 21 C-24.92232767 10.6964182 -15.06650041 4.6416055 -5.6015625 -0.06640625 C-3 -1 -3 -1 0 0 Z " fill="#F63E9F" transform="translate(112,90)"/>
<path d="M0 0 C9 0 9 0 12.5625 2 C14.9410795 4.92748246 15.42134747 5.54785155 15.625 9.0625 C15 13 15 13 13.1875 15.4375 C8.57627241 18.73123399 6.20416509 18 0 18 C0 12.06 0 6.12 0 0 Z " fill="#0B0846" transform="translate(99,143)"/>
<path d="M0 0 C2.97 0.495 2.97 0.495 6 1 C7.23711614 4.56184162 6.75047226 6.95808229 5.8203125 10.5703125 C5.55089844 11.63121094 5.28148437 12.69210938 5.00390625 13.78515625 C4.71386719 14.88730469 4.42382812 15.98945312 4.125 17.125 C3.84269531 18.23488281 3.56039062 19.34476563 3.26953125 20.48828125 C1.16870301 28.66259398 1.16870301 28.66259398 0 31 C-2.31 30.67 -4.62 30.34 -7 30 C-6.42034851 24.17055037 -5.24618299 18.89529646 -3.5 13.3125 C-1.46625834 6.72915475 -1.46625834 6.72915475 0 0 Z " fill="#FA5D6A" transform="translate(137,93)"/>
<path d="M0 0 C0.99 0.66 1.98 1.32 3 2 C2.34 2.66 1.68 3.32 1 4 C0.3574765 6.06874034 0.3574765 6.06874034 0 8 C-1.65 8 -3.3 8 -5 8 C-6.90497619 13.37203286 -8.44960909 18.6378556 -9.47265625 24.25 C-9.64667969 24.8275 -9.82070312 25.405 -10 26 C-10.66 26.33 -11.32 26.66 -12 27 C-14.04163523 19.45324122 -15.91876725 11.70520572 -12.1875 4.5 C-8.29369399 0.04993598 -5.77314053 -0.41236718 0 0 Z " fill="#F97058" transform="translate(113,40)"/>
<path d="M0 0 C0.97549805 0.26103516 0.97549805 0.26103516 1.97070312 0.52734375 C5.27317634 1.43628133 8.32155597 2.44401374 11.3125 4.125 C10.3225 4.125 9.3325 4.125 8.3125 4.125 C8.498125 4.74375 8.68375 5.3625 8.875 6 C9.3125 8.125 9.3125 8.125 8.3125 10.125 C2.51390805 9.55689471 -2.66436594 8.38820265 -8.1875 6.5625 C-8.91453125 6.32853516 -9.6415625 6.09457031 -10.390625 5.85351562 C-12.15830261 5.28367219 -13.92320969 4.70524596 -15.6875 4.125 C-15.3575 2.805 -15.0275 1.485 -14.6875 0.125 C-15.3475 -0.205 -16.0075 -0.535 -16.6875 -0.875 C-11.47330671 -3.48209664 -5.32462056 -1.51517961 0 0 Z " fill="#FA8B33" transform="translate(128.6875,43.875)"/>
<path d="M0 0 C1.65 0 3.3 0 5 0 C6.00399524 2.62353518 7.00334445 5.24867795 8 7.875 C8.28617188 8.62136719 8.57234375 9.36773437 8.8671875 10.13671875 C11 15.7734375 11 15.7734375 11 18 C9.68 18 8.36 18 7 18 C6.67 16.68 6.34 15.36 6 14 C3.69 14.33 1.38 14.66 -1 15 C-1.33 15.99 -1.66 16.98 -2 18 C-3.32 18 -4.64 18 -6 18 C-4.23536928 11.89262558 -2.30442525 5.92566493 0 0 Z " fill="#181551" transform="translate(84,143)"/>
<path d="M0 0 C2.3125 0.8125 2.3125 0.8125 4 2 C4.33 2.99 4.66 3.98 5 5 C3.95199219 4.85691406 3.95199219 4.85691406 2.8828125 4.7109375 C1.97273438 4.60007813 1.06265625 4.48921875 0.125 4.375 C-0.77992187 4.25898438 -1.68484375 4.14296875 -2.6171875 4.0234375 C-3.40351562 4.01570312 -4.18984375 4.00796875 -5 4 C-7.31563087 5.88500271 -7.31563087 5.88500271 -7.25 9 C-7.31563087 12.11499729 -7.31563087 12.11499729 -5 14 C-2.5 14.41666667 -2.5 14.41666667 0 14 C0.66 13.01 1.32 12.02 2 11 C0.02 11 -1.96 11 -4 11 C-4 10.01 -4 9.02 -4 8 C-0.7 8 2.6 8 6 8 C6 13 6 13 3.375 15.8125 C1.05855512 17.52939444 -0.14694872 18.02998953 -3.0625 18.625 C-7.16102524 17.75297335 -8.58610696 16.407849 -11 13 C-11.70862744 10.16549024 -11.70862744 7.83450976 -11 5 C-7.80929781 0.49547927 -5.48033913 -0.81622072 0 0 Z " fill="#15124E" transform="translate(69,143)"/>
<path d="M0 0 C2.4375 1.375 2.4375 1.375 4 3 C4 3.66 4 4.32 4 5 C2.95199219 4.85691406 2.95199219 4.85691406 1.8828125 4.7109375 C0.97273437 4.60007813 0.06265625 4.48921875 -0.875 4.375 C-1.77992188 4.25898438 -2.68484375 4.14296875 -3.6171875 4.0234375 C-4.40351562 4.01570312 -5.18984375 4.00796875 -6 4 C-6.66 4.66 -7.32 5.32 -8 6 C-7.90304884 10.34194936 -7.90304884 10.34194936 -6 14 C-3.54190002 14.2500773 -3.54190002 14.2500773 -1 14 C-0.34 13.34 0.32 12.68 1 12 C-0.65 11.67 -2.3 11.34 -4 11 C-4 10.01 -4 9.02 -4 8 C-1.03 8 1.94 8 5 8 C4.51834131 14.38197767 4.51834131 14.38197767 2.375 16.9375 C-1.02619871 18.4590889 -3.31282731 18.51749792 -7 18 C-9.91963173 16.01216563 -11.61102978 14.5685303 -12.48046875 11.0625 C-12.75815509 7.09984094 -12.23092162 5.33588599 -9.9375 2 C-6.26914026 -0.49760663 -4.35802608 -0.6338947 0 0 Z " fill="#1A1652" transform="translate(130,143)"/>
<path d="M0 0 C2.2848289 2.20971124 3.82312027 4.01253607 5 7 C5 8.32 5 9.64 5 11 C3.0274966 12.79716977 1.10741191 14.39128862 -1 16 C-2.01680311 16.98290968 -3.02738219 17.97334787 -4 19 C-7 14.25 -7 14.25 -7 12 C-7.66 12 -8.32 12 -9 12 C-8.52379711 7.62346871 -7.33100111 5.93461995 -3.9375 3.1875 C-3.20402344 2.58292969 -2.47054687 1.97835937 -1.71484375 1.35546875 C-1.14894531 0.90816406 -0.58304688 0.46085937 0 0 Z " fill="#F74A86" transform="translate(86,85)"/>
<path d="M0 0 C-0.96099609 0.63615234 -0.96099609 0.63615234 -1.94140625 1.28515625 C-10.14293375 6.84654971 -16.46163542 12.10480542 -21 21 C-22.875 20.6875 -22.875 20.6875 -25 20 C-25.66 19.01 -26.32 18.02 -27 17 C-21.81637696 10.43296631 -9.21516556 -3.07172185 0 0 Z " fill="#F64491" transform="translate(112,90)"/>
<path d="M0 0 C3.63 0 7.26 0 11 0 C11 0.99 11 1.98 11 3 C8.69 3 6.38 3 4 3 C4 4.65 4 6.3 4 8 C5.98 8 7.96 8 10 8 C10 8.66 10 9.32 10 10 C8.02 10 6.04 10 4 10 C4 11.65 4 13.3 4 15 C6.31 15 8.62 15 11 15 C11 15.99 11 16.98 11 18 C7.37 18 3.74 18 0 18 C0 12.06 0 6.12 0 0 Z " fill="#333163" transform="translate(139,143)"/>
<path d="M0 0 C3.0625 0.3125 3.0625 0.3125 5 1.375 C6.72915678 4.52816824 5.9215699 6.93758255 5.0625 10.3125 C1.84106724 12.46012184 0.8029533 12.873568 -2.9375 12.3125 C-4.8125 10.6875 -4.8125 10.6875 -5.9375 8.3125 C-5.64908355 3.50555913 -5.26034464 0.55961113 0 0 Z " fill="#1B184C" transform="translate(111.9375,167.6875)"/>
<path d="M0 0 C2 3 2 3 2 7 C0.73160474 7.50615298 -0.53983102 8.00469099 -1.8125 8.5 C-2.52019531 8.7784375 -3.22789063 9.056875 -3.95703125 9.34375 C-6 10 -6 10 -9 10 C-9 9.34 -9 8.68 -9 8 C-9.66 8 -10.32 8 -11 8 C-12.4606285 5.35261084 -13 4.10551666 -13 1 C-8.27069335 -0.96093203 -4.98760752 -1.24690188 0 0 Z " fill="#FA7052" transform="translate(117,75)"/>
<path d="M0 0 C1.05316406 -0.01224609 2.10632813 -0.02449219 3.19140625 -0.03710938 C4.69767578 -0.04000977 4.69767578 -0.04000977 6.234375 -0.04296875 C7.14928711 -0.04707764 8.06419922 -0.05118652 9.00683594 -0.05541992 C11.25 0.1875 11.25 0.1875 13.25 2.1875 C12.19039062 2.28546875 11.13078125 2.3834375 10.0390625 2.484375 C8.65093603 2.63444273 7.26292037 2.78553792 5.875 2.9375 C5.17632812 2.999375 4.47765625 3.06125 3.7578125 3.125 C1.46636218 3.34868253 1.46636218 3.34868253 -1.75 4.1875 C-3.30719538 6.12630108 -3.30719538 6.12630108 -3.75 8.1875 C-3.75 7.5275 -3.75 6.8675 -3.75 6.1875 C-4.760625 6.084375 -5.77125 5.98125 -6.8125 5.875 C-10.96218208 5.15045233 -13.96356263 3.96480734 -17.75 2.1875 C-17.75 1.8575 -17.75 1.5275 -17.75 1.1875 C-11.85549837 -0.08286673 -5.99884148 0.00372599 0 0 Z " fill="#FA9523" transform="translate(151.75,69.8125)"/>
<path d="M0 0 C0.66 0.33 1.32 0.66 2 1 C1.67 1.66 1.34 2.32 1 3 C1.66 3 2.32 3 3 3 C3 3.66 3 4.32 3 5 C3.66 5.33 4.32 5.66 5 6 C5.98661411 8.95984233 6.41600206 11.02346934 5.16796875 13.953125 C4.17761371 15.67487299 3.09411452 17.34225072 2 19 C1.67 18.34 1.34 17.68 1 17 C0.34 17 -0.32 17 -1 17 C-1 16.34 -1 15.68 -1 15 C-1.66 14.67 -2.32 14.34 -3 14 C-4.32995258 10.6897334 -3.81019033 8.60167501 -2.625 5.3125 C-2.34914063 4.52488281 -2.07328125 3.73726563 -1.7890625 2.92578125 C-1 1 -1 1 0 0 Z " fill="#F9389D" transform="translate(76,94)"/>
<path d="M0 0 C4.29 0 8.58 0 13 0 C13 0.99 13 1.98 13 3 C11.68 3 10.36 3 9 3 C9 7.95 9 12.9 9 18 C7.68 18 6.36 18 5 18 C5 13.05 5 8.1 5 3 C3.35 3 1.7 3 0 3 C0 2.01 0 1.02 0 0 Z " fill="#2B295E" transform="translate(153,143)"/>
<path d="M0 0 C6 0 6 0 7.9375 1.0625 C9.66665678 4.21566824 8.8590699 6.62508255 8 10 C5 12 5 12 0 12 C0 8.04 0 4.08 0 0 Z " fill="#EDEDF0" transform="translate(102,146)"/>
<path d="M0 0 C2.97 0.495 2.97 0.495 6 1 C7.07310858 4.27185553 6.89263102 6.42947592 6.0625 9.75 C5.86785156 10.54921875 5.67320312 11.3484375 5.47265625 12.171875 C5.31667969 12.77515625 5.16070312 13.3784375 5 14 C4.401875 13.67 3.80375 13.34 3.1875 13 C0.94613529 11.79212012 0.94613529 11.79212012 -2 12 C-1.67 13.32 -1.34 14.64 -1 16 C-1.99 16.66 -2.98 17.32 -4 18 C-2.66666667 12 -1.33333333 6 0 0 Z " fill="#F97359" transform="translate(137,93)"/>
<path d="M0 0 C2.58455285 1.89533875 2.96275506 2.88826517 4 6 C0.17679443 7.42258812 -2.91281305 8.24042276 -7 8 C-7.66 6.02 -8.32 4.04 -9 2 C-9.66 2 -10.32 2 -11 2 C-11 1.34 -11 0.68 -11 0 C-7.16455058 -1.38076179 -3.92847503 -0.85712183 0 0 Z " fill="#FB7F41" transform="translate(126,73)"/>
<path d="M0 0 C1.98 0 3.96 0 6 0 C6.66 0.66 7.32 1.32 8 2 C7.70241581 4.3381615 7.36760731 6.67182036 7 9 C7.33 9.99 7.66 10.98 8 12 C7.01 12 6.02 12 5 12 C4.34 10.68 3.68 9.36 3 8 C2.67 9.32 2.34 10.64 2 12 C1.34 12 0.68 12 0 12 C0 8.04 0 4.08 0 0 Z " fill="#434169" transform="translate(126,168)"/>
<path d="M0 0 C2.35419902 3.53129854 3.66321571 6.98964713 5 11 C5.66 11.66 6.32 12.32 7 13 C4.69 14.32 2.38 15.64 0 17 C-0.72767003 15.76115681 -1.43154815 14.50831659 -2.125 13.25 C-2.51945312 12.55390625 -2.91390625 11.8578125 -3.3203125 11.140625 C-4 9 -4 9 -3.1875 6.90625 C-2.795625 6.2771875 -2.40375 5.648125 -2 5 C-1.32033324 3.33859237 -0.65061095 1.67299959 0 0 Z " fill="#F9567A" transform="translate(91,78)"/>
<path d="M0 0 C2.3125 0.8125 2.3125 0.8125 4 2 C4.33 2.99 4.66 3.98 5 5 C3.95199219 4.85691406 3.95199219 4.85691406 2.8828125 4.7109375 C1.97273438 4.60007813 1.06265625 4.48921875 0.125 4.375 C-0.77992187 4.25898438 -1.68484375 4.14296875 -2.6171875 4.0234375 C-3.40351562 4.01570312 -4.18984375 4.00796875 -5 4 C-7.41121859 5.95633975 -7.41121859 5.95633975 -7.125 9.625 C-7.08375 10.73875 -7.0425 11.8525 -7 13 C-8.32 13 -9.64 13 -11 13 C-11.60552093 5.85485307 -11.60552093 5.85485307 -8.875 2 C-5.50172663 -0.34662495 -4.02250703 -0.59909679 0 0 Z " fill="#100C4C" transform="translate(69,143)"/>
<path d="M0 0 C0.33 0.66 0.66 1.32 1 2 C2.65 2 4.3 2 6 2 C6.28571429 9.42857143 6.28571429 9.42857143 4 13 C1.03 12.505 1.03 12.505 -2 12 C-1.44687265 7.97007218 -0.8441938 3.97977076 0 0 Z " fill="#FB7F42" transform="translate(140,82)"/>
<path d="M0 0 C2.4375 1.5 2.4375 1.5 4 3 C2.515 5.475 2.515 5.475 1 8 C-5.75 7.25 -5.75 7.25 -8 5 C-7.67 4.01 -7.34 3.02 -7 2 C-7.66 1.67 -8.32 1.34 -9 1 C-5.94306678 -0.52846661 -3.37015453 -0.23242445 0 0 Z " fill="#FB8042" transform="translate(121,42)"/>
<path d="M0 0 C2.4375 1.375 2.4375 1.375 4 3 C4 3.66 4 4.32 4 5 C2.95199219 4.85691406 2.95199219 4.85691406 1.8828125 4.7109375 C0.97273437 4.60007813 0.06265625 4.48921875 -0.875 4.375 C-1.77992188 4.25898438 -2.68484375 4.14296875 -3.6171875 4.0234375 C-4.40351562 4.01570312 -5.18984375 4.00796875 -6 4 C-8.35953094 6.35953094 -8.49141413 7.77895617 -9 11 C-9.99 11.33 -10.98 11.66 -12 12 C-12.4206933 7.70892835 -12.45543836 5.64865463 -9.9375 2.0625 C-6.27096589 -0.51187502 -4.39593437 -0.63940864 0 0 Z " fill="#0F0B4A" transform="translate(130,143)"/>
<path d="M0 0 C0.99 0.33 1.98 0.66 3 1 C3.66 0.67 4.32 0.34 5 0 C6.4606285 2.64738916 7 3.89448334 7 7 C6.21625 7.061875 5.4325 7.12375 4.625 7.1875 C3.75875 7.455625 2.8925 7.72375 2 8 C0.62533375 10.47636012 0.62533375 10.47636012 0 13 C-1.32 13 -2.64 13 -4 13 C-3.52140759 11.39566191 -3.04210442 9.79153584 -2.5625 8.1875 C-2.29566406 7.29417969 -2.02882813 6.40085938 -1.75390625 5.48046875 C-1.19612127 3.64526945 -0.60655425 1.81966274 0 0 Z " fill="#221D56" transform="translate(82,148)"/>
<path d="M0 0 C1.73662334 3.22515763 2.8905928 6.51329166 4 10 C2.68 11.32 1.36 12.64 0 14 C-3 9.25 -3 9.25 -3 7 C-3.66 7 -4.32 7 -5 7 C-3.70700306 4.11562221 -2.34058637 2.12780579 0 0 Z " fill="#F84090" transform="translate(82,90)"/>
<path d="M0 0 C0.66 0.99 1.32 1.98 2 3 C4.05925139 3.72382467 4.05925139 3.72382467 6 4 C5.67 6.31 5.34 8.62 5 11 C2.69 10.67 0.38 10.34 -2 10 C-1.125 2.25 -1.125 2.25 0 0 Z " fill="#F75B7D" transform="translate(132,113)"/>
<path d="M0 0 C2.31 0 4.62 0 7 0 C7 0.66 7 1.32 7 2 C5.35 2 3.7 2 2 2 C2 2.99 2 3.98 2 5 C3.32 5 4.64 5 6 5 C6 5.66 6 6.32 6 7 C4.68 7 3.36 7 2 7 C2 7.99 2 8.98 2 10 C3.65 10 5.3 10 7 10 C7 10.66 7 11.32 7 12 C4.69 12 2.38 12 0 12 C0 8.04 0 4.08 0 0 Z " fill="#272651" transform="translate(142,168)"/>
<path d="M0 0 C2.625 0.375 2.625 0.375 5 1 C5.625 3.375 5.625 3.375 6 6 C5.34 6.66 4.68 7.32 4 8 C1.375 7.625 1.375 7.625 -1 7 C-1.625 4.625 -1.625 4.625 -2 2 C-1.34 1.34 -0.68 0.68 0 0 Z " fill="#E8E7EB" transform="translate(110,170)"/>
<path d="M0 0 C2.31 0.33 4.62 0.66 7 1 C6.67 2.98 6.34 4.96 6 7 C4.5199159 6.88637738 3.04089926 6.75877092 1.5625 6.625 C0.73878906 6.55539063 -0.08492187 6.48578125 -0.93359375 6.4140625 C-1.61550781 6.27742187 -2.29742187 6.14078125 -3 6 C-3.33 5.34 -3.66 4.68 -4 4 C-3.01 3.67 -2.02 3.34 -1 3 C-0.67 2.01 -0.34 1.02 0 0 Z " fill="#F85089" transform="translate(129,123)"/>
<path d="M0 0 C-0.66386719 0.45890625 -1.32773438 0.9178125 -2.01171875 1.390625 C-6.44798964 4.47334754 -10.84624016 7.53853346 -15 11 C-15.66 10.67 -16.32 10.34 -17 10 C-16.8984375 8.23828125 -16.8984375 8.23828125 -16 6 C-13.1640625 4.04296875 -13.1640625 4.04296875 -9.625 2.1875 C-9.03460938 1.86330078 -8.44421875 1.53910156 -7.8359375 1.20507812 C-3.39354317 -1.13118106 -3.39354317 -1.13118106 0 0 Z " fill="#F55F81" transform="translate(112,90)"/>
<path d="M0 0 C2.97 0.33 5.94 0.66 9 1 C8.01 1.33 7.02 1.66 6 2 C6.185625 2.61875 6.37125 3.2375 6.5625 3.875 C7 6 7 6 6 8 C3.36 7.67 0.72 7.34 -2 7 C-1.67 6.030625 -1.34 5.06125 -1 4.0625 C0.05173363 1.37850426 0.05173363 1.37850426 0 0 Z " fill="#FA9A30" transform="translate(131,46)"/>
<path d="M0 0 C2.375 -0.1875 2.375 -0.1875 5 0 C5.66 0.99 6.32 1.98 7 3 C4.03 2.505 4.03 2.505 1 2 C2.93254772 4.0245738 4.63158688 5.42105792 7 7 C6.67 8.32 6.34 9.64 6 11 C4.35 11.33 2.7 11.66 1 12 C0.34 11.01 -0.32 10.02 -1 9 C1.97 9.495 1.97 9.495 5 10 C2.9927092 6.9890638 2.16115776 6.36983503 -1 5 C-0.67 3.35 -0.34 1.7 0 0 Z " fill="#151445" transform="translate(76,168)"/>
<path d="M0 0 C0.33 0 0.66 0 1 0 C1.48945148 7.34177215 1.48945148 7.34177215 -0.8125 10.4375 C-3.95661505 12.68329646 -6.42559413 13.12417059 -10.1875 13.0625 C-12.0746875 13.0315625 -12.0746875 13.0315625 -14 13 C-14 12.67 -14 12.34 -14 12 C-12.39125 11.9071875 -12.39125 11.9071875 -10.75 11.8125 C-6.31365441 10.85129179 -5.5083531 9.6231767 -3 6 C-2.34 6 -1.68 6 -1 6 C-1.020625 5.195625 -1.04125 4.39125 -1.0625 3.5625 C-1 1 -1 1 0 0 Z " fill="#1E1953" transform="translate(113,148)"/>
<path d="M0 0 C3.3 0 6.6 0 10 0 C10 1.65 10 3.3 10 5 C9.01 5.33 8.02 5.66 7 6 C6.67 5.34 6.34 4.68 6 4 C2.97065509 3.34227572 2.97065509 3.34227572 0 3 C0 2.01 0 1.02 0 0 Z " fill="#28265D" transform="translate(65,151)"/>
<path d="M0 0 C2.97 0 5.94 0 9 0 C9 0.66 9 1.32 9 2 C8.01 2 7.02 2 6 2 C6 5.3 6 8.6 6 12 C5.34 12 4.68 12 4 12 C4 8.7 4 5.4 4 2 C2.68 2 1.36 2 0 2 C0 1.34 0 0.68 0 0 Z " fill="#1A194B" transform="translate(90,168)"/>
<path d="M0 0 C0.66 0 1.32 0 2 0 C4 3 4 3 4 6 C4.66 6 5.32 6 6 6 C6.33 6.99 6.66 7.98 7 9 C5.68 9.33 4.36 9.66 3 10 C-0.22265625 4.82421875 -0.22265625 4.82421875 -1 3 C-0.67 2.01 -0.34 1.02 0 0 Z " fill="#FB6762" transform="translate(102,77)"/>
<path d="M0 0 C0.33 0.99 0.66 1.98 1 3 C1.66 3 2.32 3 3 3 C1.84826645 5.46800047 0.95216435 7.04783565 -1 9 C-3 8 -3 8 -3.875 6.1875 C-4 4 -4 4 -2.0625 1.75 C-1.381875 1.1725 -0.70125 0.595 0 0 Z " fill="#F65288" transform="translate(94,97)"/>
<path d="M0 0 C0.33 0 0.66 0 1 0 C1 1.65 1 3.3 1 5 C2.98 5 4.96 5 7 5 C7 5.66 7 6.32 7 7 C5.02 7 3.04 7 1 7 C1 8.65 1 10.3 1 12 C-1.23551759 8.64672361 -1.17283528 8.09256343 -0.625 4.3125 C-0.51414063 3.50425781 -0.40328125 2.69601563 -0.2890625 1.86328125 C-0.19367188 1.24839844 -0.09828125 0.63351563 0 0 Z " fill="#140F4B" transform="translate(142,146)"/>
<path d="M0 0 C1.74886981 0.06624507 3.50002748 0.08552595 5.25 0.0625 C6.58804688 0.04896484 6.58804688 0.04896484 7.953125 0.03515625 C8.62859375 0.02355469 9.3040625 0.01195313 10 0 C10 0.66 10 1.32 10 2 C3.73 2 -2.54 2 -9 2 C-5.85511725 -1.14488275 -4.01400099 -1.0620988 0 0 Z " fill="#F3A740" transform="translate(143,64)"/>
<path d="M0 0 C2.18975773 3.28463659 2.99806563 6.20696275 4 10 C2.68 10 1.36 10 0 10 C-1.125 3.375 -1.125 3.375 0 0 Z " fill="#2D295E" transform="translate(91,151)"/>
<path d="M0 0 C-1.43160268 1.00842453 -2.87051453 2.00647891 -4.3125 3 C-5.51326172 3.8353125 -5.51326172 3.8353125 -6.73828125 4.6875 C-9 6 -9 6 -12 6 C-11 3 -11 3 -9.2578125 1.796875 C-8.55398437 1.45140625 -7.85015625 1.1059375 -7.125 0.75 C-6.42632812 0.39421875 -5.72765625 0.0384375 -5.0078125 -0.328125 C-3 -1 -3 -1 0 0 Z " fill="#F46972" transform="translate(112,90)"/>
<path d="M0 0 C3 3.625 3 3.625 3 7 C1.35 7 -0.3 7 -2 7 C-1.125 1.125 -1.125 1.125 0 0 Z " fill="#D5D4DB" transform="translate(86,148)"/>
<path d="M0 0 C0.99 0 1.98 0 3 0 C2.67 2.31 2.34 4.62 2 7 C-0.31 7 -2.62 7 -5 7 C-4.67 6.34 -4.34 5.68 -4 5 C-2.35 5 -0.7 5 1 5 C0.67 3.35 0.34 1.7 0 0 Z " fill="#020043" transform="translate(88,150)"/>
<path d="M0 0 C1.875 0.25 1.875 0.25 4 1 C5.87380446 3.49840595 6.05001932 4.63319166 5.625 7.75 C5.41875 8.4925 5.2125 9.235 5 10 C4.67 10 4.34 10 4 10 C3.566875 8.63875 3.566875 8.63875 3.125 7.25 C2.23468224 4.67797092 1.28505587 2.38653234 0 0 Z " fill="#070346" transform="translate(107,144)"/>
<path d="M0 0 C0 0.99 0 1.98 0 3 C-3.75 4.125 -3.75 4.125 -6 3 C-6 2.01 -6 1.02 -6 0 C-3.50907189 -1.24546405 -2.58919267 -0.7767578 0 0 Z " fill="#FD635E" transform="translate(141,105)"/>
<path d="M0 0 C1.32 0 2.64 0 4 0 C4.33 0.99 4.66 1.98 5 3 C2.525 4.485 2.525 4.485 0 6 C-0.38218767 4.34385343 -0.71395102 2.67542976 -1 1 C-0.67 0.67 -0.34 0.34 0 0 Z " fill="#F9AD1D" transform="translate(146,55)"/>
<path d="M0 0 C0.33 0.99 0.66 1.98 1 3 C-4 2 -4 2 -9 1 C-9 0.67 -9 0.34 -9 0 C-5.69903842 -0.8252404 -3.1967 -1.37001429 0 0 Z " fill="#060442" transform="translate(73,145)"/>
</svg>
